{
  "accessors": [
    {
      "bufferView": 2,
      "componentType": 5126,
      "count": 7627,
      "max": [
        4.983314037322998,
        0.4024384915828705,
        14.05150032043457
      ],
      "min": [
        -4.823276042938232,
        -0.3630604147911072,
        -15.97992992401123
      ],
      "type": "VEC3"
    },
    {
      "bufferView": 2,
      "byteOffset": 91524,
      "componentType": 5126,
      "count": 7627,
      "max": [
        1.0,
        1.0,
        1.0
      ],
      "min": [
        -0.9999994039535522,
        -1.0,
        -1.0
      ],
      "type": "VEC3"
    },
    {
      "bufferView": 1,
      "componentType": 5126,
      "count": 7627,
      "max": [
        0.8377696871757507,
        0.6738033294677734
      ],
      "min": [
        0.11757119745016098,
        0.3201200067996979
      ],
      "type": "VEC2"
    },
    {
      "bufferView": 0,
      "componentType": 5125,
      "count": 45246,
      "type": "SCALAR"
    },
    {
      "bufferView": 2,
      "byteOffset": 183048,
      "componentType": 5126,
      "count": 3968,
      "max": [
        1.517287015914917,
        1.517285943031311,
        15.250140190124512
      ],
      "min": [
        -1.517285943031311,
        -1.517287015914917,
        -5.7641282081604
      ],
      "type": "VEC3"
    },
    {
      "bufferView": 2,
      "byteOffset": 230664,
      "componentType": 5126,
      "count": 3968,
      "max": [
        1.0,
        1.0,
        0.9992259740829468
      ],
      "min": [
        -1.0,
        -1.0,
        -0.9994363784790039
      ],
      "type": "VEC3"
    },
    {
      "bufferView": 1,
      "byteOffset": 61016,
      "componentType": 5126,
      "count": 3968,
      "max": [
        0.8631507754325867,
        0.5542833805084229
      ],
      "min": [
        0.3632872998714447,
        0.44890740513801575
      ],
      "type": "VEC2"
    },
    {
      "bufferView": 0,
      "byteOffset": 180984,
      "componentType": 5125,
      "count": 21690,
      "type": "SCALAR"
    }
  ],
  "asset": {
    "extras": {
      "author": "3Dee (https://sketchfab.com/mellydeeis)",
      "license": "CC-BY-4.0 (http://creativecommons.org/licenses/by/4.0/)",
      "source": "https://sketchfab.com/3d-models/old-gold-key-f5dc85be7a5041af8664c50959c89001",
      "title": "Old Gold Key"
    },
    "generator": "Sketchfab-12.67.0",
    "version": "2.0"
  },
  "bufferViews": [
    {
      "buffer": 0,
      "byteLength": 267744,
      "name": "floatBufferViews",
      "target": 34963
    },
    {
      "buffer": 0,
      "byteLength": 92760,
      "byteOffset": 267744,
      "byteStride": 8,
      "name": "floatBufferViews",
      "target": 34962
    },
    {
      "buffer": 0,
      "byteLength": 278280,
      "byteOffset": 360504,
      "byteStride": 12,
      "name": "floatBufferViews",
      "target": 34962
    }
  ],
  "buffers": [
    {
      "byteLength": 638784,
      "uri": "scene.bin"
    }
  ],
  "extensionsUsed": [
    "KHR_materials_clearcoat"
  ],
  "images": [
    {
      "uri": "textures/material_0_baseColor.jpeg"
    },
    {
      "uri": "textures/material_0_metallicRoughness.png"
    },
    {
      "uri": "textures/Material_metallicRoughness.png"
    }
  ],
  "materials": [
    {
      "doubleSided": true,
      "name": "material_0",
      "pbrMetallicRoughness": {
        "baseColorTexture": {
          "index": 0
        },
        "metallicRoughnessTexture": {
          "index": 1
        },
        "roughnessFactor": 0.05660377358490566
      }
    },
    {
      "doubleSided": true,
      "extensions": {
        "KHR_materials_clearcoat": {
          "clearcoatFactor": 1.0,
          "clearcoatRoughnessFactor": 0.04
        }
      },
      "name": "Material",
      "occlusionTexture": {
        "index": 2
      },
      "pbrMetallicRoughness": {
        "baseColorTexture": {
          "index": 0
        },
        "metallicFactor": 0.4339622641509434,
        "metallicRoughnessTexture": {
          "index": 2
        },
        "roughnessFactor": 0.5534591194968553
      }
    }
  ],
  "meshes": [
    {
      "name": "Material-material",
      "primitives": [
        {
          "attributes": {
            "NORMAL": 1,
            "POSITION": 0,
            "TEXCOORD_0": 2
          },
          "indices": 3,
          "material": 1,
          "mode": 4
        }
      ]
    },
    {
      "name": "Object_1",
      "primitives": [
        {
          "attributes": {
            "NORMAL": 5,
            "POSITION": 4,
            "TEXCOORD_0": 6
          },
          "indices": 7,
          "material": 0,
          "mode": 4
        }
      ]
    }
  ],
  "nodes": [
    {
      "children": [
        1
      ],
      "matrix": [
        1.0,
        0.0,
        0.0,
        0.0,
        0.0,
        2.220446049250313e-16,
        -1.0,
        0.0,
        0.0,
        1.0,
        2.220446049250313e-16,
        0.0,
        0.0,
        0.0,
        0.0,
        1.0
      ],
      "name": "Sketchfab_model"
    },
    {
      "children": [
        2,
        4
      ],
      "name": "Collada visual scene group"
    },
    {
      "children": [
        3
      ],
      "matrix": [
        1.8206e-08,
        0.0,
        -0.2411457,
        0.0,
        0.0,
        0.2411457,
        0.0,
        0.0,
        0.2411457,
        0.0,
        1.8206e-08,
        0.0,
        0.0,
        0.0,
        0.0,
        1.0
      ],
      "name": "Circle_004"
    },
    {
      "mesh": 0,
      "name": "Material-material"
    },
    {
      "children": [
        5
      ],
      "matrix": [
        1.8206e-08,
        0.0,
        -0.2411457,
        0.0,
        0.0,
        0.2411457,
        0.0,
        0.0,
        0.2411457,
        0.0,
        1.8206e-08,
        0.0,
        0.0,
        0.0,
        0.0,
        1.0
      ],
      "name": "Circle_001"
    },
    {
      "mesh": 1,
      "name": "Object_5"
    }
  ],
  "samplers": [
    {
      "magFilter": 9729,
      "minFilter": 9987,
      "wrapS": 10497,
      "wrapT": 10497
    }
  ],
  "scene": 0,
  "scenes": [
    {
      "name": "Sketchfab_Scene",
      "nodes": [
        0
      ]
    }
  ],
  "textures": [
    {
      "sampler": 0,
      "source": 0
    },
    {
      "sampler": 0,
      "source": 1
    },
    {
      "sampler": 0,
      "source": 2
    }
  ]
}
