{"asset":{"version":"2.0","generator":"VECTARY"},"nodes":[{"translation":[0,0,0],"scale":[140.694697265625,35.014453125,35.014453125],"rotation":[-0.7071067811865475,0,0,0.7071067811865476],"name":"Plane.196","mesh":0}],"materials":[{"pbrMetallicRoughness":{"baseColorFactor":[0.8670237934377415,0.8670237934377415,0.8670237934377415,1],"metallicFactor":0,"roughnessFactor":0.2},"name":"Material.440","emissiveFactor":[0,0,0],"extensions":{},"alphaMode":"OPAQUE","doubleSided":false}],"meshes":[{"primitives":[{"mode":4,"attributes":{"POSITION":1,"NORMAL":2,"TEXCOORD_0":3},"material":0,"indices":0}]}],"accessors":[{"bufferView":0,"byteOffset":0,"componentType":5125,"count":33183,"type":"SCALAR"},{"bufferView":1,"byteOffset":0,"componentType":5126,"count":8670,"max":[0.020953873172402382,0.030738813802599907,0.003104832023382187],"min":[-0.021075133234262466,-0.030738813802599907,-0.05981428921222687],"type":"VEC3"},{"bufferView":2,"byteOffset":0,"componentType":5126,"count":8670,"type":"VEC3"},{"bufferView":3,"byteOffset":0,"componentType":5126,"count":8670,"type":"VEC2"}],"bufferViews":[{"buffer":0,"byteOffset":0,"byteLength":132732,"target":34963},{"buffer":0,"byteOffset":132732,"byteLength":104040,"target":34962},{"buffer":0,"byteOffset":236772,"byteLength":104040,"target":34962},{"buffer":0,"byteOffset":340812,"byteLength":69360,"target":34962}],"scene":0,"scenes":[{"nodes":[0],"name":"Project Name"}],"extensionsUsed":["KHR_texture_transform"],"buffers":[{"byteLength":410172,"uri":"ProjectName.bin"}]}