{"asset":{"version":"2.0","generator":"VECTARY"},"nodes":[{"translation":[0.055000000000000014,1.0658141036401503e-17,-0.06000000000000002],"scale":[0.0010968856000642888,0.0010968856000642888,0.0011248608904087544],"rotation":[-0.7071067811865475,0,0,0.7071067811865476],"name":"Cylinder 12","mesh":0},{"translation":[0.05500000000000001,1.0658141036401503e-17,-0.05000000000000002],"scale":[0.0010968856000642888,0.0010968856000642888,0.0011248608904087544],"rotation":[-0.7071067811865475,0,0,0.7071067811865476],"name":"Cylinder 11","mesh":1},{"translation":[0.055000000000000014,-1.0658141036401503e-17,0.06000000000000002],"scale":[0.0010968856000642888,0.0010968856000642888,0.0011248608904087544],"rotation":[-0.7071067811865475,0,0,0.7071067811865476],"name":"Cylinder 10","mesh":2},{"translation":[0.055000000000000014,-1.0658141036401503e-17,0.05000000000000002],"scale":[0.0010968856000642888,0.0010968856000642888,0.0011248608904087544],"rotation":[-0.7071067811865475,0,0,0.7071067811865476],"name":"Cylinder 9","mesh":3},{"translation":[0.05500000000000001,-7.105427357601002e-18,0.04],"scale":[0.0010968856000642888,0.0010968856000642888,0.0011248608904087544],"rotation":[-0.7071067811865475,0,0,0.7071067811865476],"name":"Cylinder 8","mesh":4},{"translation":[0.055000000000000014,-5.3290705182007515e-18,0.03000000000000001],"scale":[0.0010968856000642888,0.0010968856000642888,0.0011248608904087544],"rotation":[-0.7071067811865475,0,0,0.7071067811865476],"name":"Cylinder 7","mesh":5},{"translation":[0.05500000000000001,-3.552713678800501e-18,0.02],"scale":[0.0010968856000642888,0.0010968856000642888,0.0011248608904087544],"rotation":[-0.7071067811865475,0,0,0.7071067811865476],"name":"Cylinder 6","mesh":6},{"translation":[0.05500000000000001,-8.881784197001253e-19,0.010000000000000005],"scale":[0.0010968856000642888,0.0010968856000642888,0.0011248608904087544],"rotation":[-0.7071067811865475,0,0,0.7071067811865476],"name":"Cylinder 5","mesh":7},{"translation":[0.055000000000000014,7.105427357601002e-18,-0.04],"scale":[0.0010968856000642888,0.0010968856000642888,0.0011248608904087544],"rotation":[-0.7071067811865475,0,0,0.7071067811865476],"name":"Cylinder 4","mesh":8},{"translation":[0.05500000000000001,5.3290705182007515e-18,-0.03000000000000001],"scale":[0.0010968856000642888,0.0010968856000642888,0.0011248608904087544],"rotation":[-0.7071067811865475,0,0,0.7071067811865476],"name":"Cylinder 3","mesh":9},{"translation":[0.05500000000000001,3.552713678800501e-18,-0.020000000000000004],"scale":[0.0010968856000642888,0.0010968856000642888,0.0011248608904087544],"rotation":[-0.7071067811865475,0,0,0.7071067811865476],"name":"Cylinder 2","mesh":10},{"translation":[0.05500000000000001,1.7763568394002505e-18,-0.01],"scale":[0.0010968856000642888,0.0010968856000642888,0.0011248608904087544],"rotation":[-0.7071067811865475,0,0,0.7071067811865476],"name":"Cylinder 1","mesh":11},{"translation":[0.05500000000000001,1.5777218104420236e-33,-7.105427357601002e-18],"scale":[0.0010968856000642888,0.0010968856000642888,0.0011248608904087544],"rotation":[-0.7071067811865475,0,0,0.7071067811865476],"name":"Cylinder","mesh":12},{"translation":[0.11,0,0],"scale":[0.0008849557522123895,0.005000000000000001,0.001],"rotation":[-0.7071067811865475,0,0,0.7071067811865476],"name":"Box - baked","mesh":13},{"translation":[0,-4.163336342344337e-20,0.0002279403067105079],"scale":[0.0012,0.0014,0.001],"rotation":[-0.7071067811865475,0,0,0.7071067811865476],"name":"Box - baked","mesh":14}],"materials":[{"pbrMetallicRoughness":{"baseColorFactor":[0.8670237934377415,0.8670237934377415,0.8670237934377415,1],"metallicFactor":0,"roughnessFactor":0.2},"name":"Poetic Charm 12","emissiveFactor":[0,0,0],"extensions":{},"alphaMode":"OPAQUE","doubleSided":false},{"pbrMetallicRoughness":{"baseColorFactor":[0.8670237934377415,0.8670237934377415,0.8670237934377415,1],"metallicFactor":0,"roughnessFactor":0.2},"name":"Poetic Charm 11","emissiveFactor":[0,0,0],"extensions":{},"alphaMode":"OPAQUE","doubleSided":false},{"pbrMetallicRoughness":{"baseColorFactor":[0.8670237934377415,0.8670237934377415,0.8670237934377415,1],"metallicFactor":0,"roughnessFactor":0.2},"name":"Poetic Charm 10","emissiveFactor":[0,0,0],"extensions":{},"alphaMode":"OPAQUE","doubleSided":false},{"pbrMetallicRoughness":{"baseColorFactor":[0.8670237934377415,0.8670237934377415,0.8670237934377415,1],"metallicFactor":0,"roughnessFactor":0.2},"name":"Poetic Charm 9","emissiveFactor":[0,0,0],"extensions":{},"alphaMode":"OPAQUE","doubleSided":false},{"pbrMetallicRoughness":{"baseColorFactor":[0.8670237934377415,0.8670237934377415,0.8670237934377415,1],"metallicFactor":0,"roughnessFactor":0.2},"name":"Poetic Charm 8","emissiveFactor":[0,0,0],"extensions":{},"alphaMode":"OPAQUE","doubleSided":false},{"pbrMetallicRoughness":{"baseColorFactor":[0.8670237934377415,0.8670237934377415,0.8670237934377415,1],"metallicFactor":0,"roughnessFactor":0.2},"name":"Poetic Charm 7","emissiveFactor":[0,0,0],"extensions":{},"alphaMode":"OPAQUE","doubleSided":false},{"pbrMetallicRoughness":{"baseColorFactor":[0.8670237934377415,0.8670237934377415,0.8670237934377415,1],"metallicFactor":0,"roughnessFactor":0.2},"name":"Poetic Charm 6","emissiveFactor":[0,0,0],"extensions":{},"alphaMode":"OPAQUE","doubleSided":false},{"pbrMetallicRoughness":{"baseColorFactor":[0.8670237934377415,0.8670237934377415,0.8670237934377415,1],"metallicFactor":0,"roughnessFactor":0.2},"name":"Poetic Charm 5","emissiveFactor":[0,0,0],"extensions":{},"alphaMode":"OPAQUE","doubleSided":false},{"pbrMetallicRoughness":{"baseColorFactor":[0.8670237934377415,0.8670237934377415,0.8670237934377415,1],"metallicFactor":0,"roughnessFactor":0.2},"name":"Poetic Charm 4","emissiveFactor":[0,0,0],"extensions":{},"alphaMode":"OPAQUE","doubleSided":false},{"pbrMetallicRoughness":{"baseColorFactor":[0.8670237934377415,0.8670237934377415,0.8670237934377415,1],"metallicFactor":0,"roughnessFactor":0.2},"name":"Poetic Charm 3","emissiveFactor":[0,0,0],"extensions":{},"alphaMode":"OPAQUE","doubleSided":false},{"pbrMetallicRoughness":{"baseColorFactor":[0.8670237934377415,0.8670237934377415,0.8670237934377415,1],"metallicFactor":0,"roughnessFactor":0.2},"name":"Poetic Charm 2","emissiveFactor":[0,0,0],"extensions":{},"alphaMode":"OPAQUE","doubleSided":false},{"pbrMetallicRoughness":{"baseColorFactor":[0.8670237934377415,0.8670237934377415,0.8670237934377415,1],"metallicFactor":0,"roughnessFactor":0.2},"name":"Poetic Charm 1","emissiveFactor":[0,0,0],"extensions":{},"alphaMode":"OPAQUE","doubleSided":false},{"pbrMetallicRoughness":{"baseColorFactor":[0.8670237934377415,0.8670237934377415,0.8670237934377415,1],"metallicFactor":0,"roughnessFactor":0.2},"name":"Poetic Charm","emissiveFactor":[0,0,0],"extensions":{},"alphaMode":"OPAQUE","doubleSided":false},{"pbrMetallicRoughness":{"baseColorFactor":[0.8670237934377415,0.8670237934377415,0.8670237934377415,1],"metallicFactor":0,"roughnessFactor":0.2},"name":"Lincoln","emissiveFactor":[0,0,0],"extensions":{},"alphaMode":"OPAQUE","doubleSided":true},{"pbrMetallicRoughness":{"baseColorFactor":[0.8670237934377415,0.8670237934377415,0.8670237934377415,1],"metallicFactor":0,"roughnessFactor":0.2},"name":"Vienna","emissiveFactor":[0,0,0],"extensions":{},"alphaMode":"OPAQUE","doubleSided":true}],"meshes":[{"primitives":[{"mode":4,"attributes":{"POSITION":1,"NORMAL":2,"TEXCOORD_0":3},"material":0,"indices":0}]},{"primitives":[{"mode":4,"attributes":{"POSITION":5,"NORMAL":6,"TEXCOORD_0":7},"material":1,"indices":4}]},{"primitives":[{"mode":4,"attributes":{"POSITION":9,"NORMAL":10,"TEXCOORD_0":11},"material":2,"indices":8}]},{"primitives":[{"mode":4,"attributes":{"POSITION":13,"NORMAL":14,"TEXCOORD_0":15},"material":3,"indices":12}]},{"primitives":[{"mode":4,"attributes":{"POSITION":17,"NORMAL":18,"TEXCOORD_0":19},"material":4,"indices":16}]},{"primitives":[{"mode":4,"attributes":{"POSITION":21,"NORMAL":22,"TEXCOORD_0":23},"material":5,"indices":20}]},{"primitives":[{"mode":4,"attributes":{"POSITION":25,"NORMAL":26,"TEXCOORD_0":27},"material":6,"indices":24}]},{"primitives":[{"mode":4,"attributes":{"POSITION":29,"NORMAL":30,"TEXCOORD_0":31},"material":7,"indices":28}]},{"primitives":[{"mode":4,"attributes":{"POSITION":33,"NORMAL":34,"TEXCOORD_0":35},"material":8,"indices":32}]},{"primitives":[{"mode":4,"attributes":{"POSITION":37,"NORMAL":38,"TEXCOORD_0":39},"material":9,"indices":36}]},{"primitives":[{"mode":4,"attributes":{"POSITION":41,"NORMAL":42,"TEXCOORD_0":43},"material":10,"indices":40}]},{"primitives":[{"mode":4,"attributes":{"POSITION":45,"NORMAL":46,"TEXCOORD_0":47},"material":11,"indices":44}]},{"primitives":[{"mode":4,"attributes":{"POSITION":49,"NORMAL":50,"TEXCOORD_0":51},"material":12,"indices":48}]},{"primitives":[{"mode":4,"attributes":{"POSITION":53,"NORMAL":54,"TEXCOORD_0":55},"material":13,"indices":52}]},{"primitives":[{"mode":4,"attributes":{"POSITION":57,"NORMAL":58,"TEXCOORD_0":59},"material":14,"indices":56}]}],"accessors":[{"bufferView":0,"byteOffset":0,"componentType":5125,"count":768,"type":"SCALAR"},{"bufferView":1,"byteOffset":0,"componentType":5126,"count":260,"max":[1.7999999523162842,1.7999999523162842,88.9000015258789],"min":[-1.7999999523162842,-1.7999999523162842,0],"type":"VEC3"},{"bufferView":2,"byteOffset":0,"componentType":5126,"count":260,"type":"VEC3"},{"bufferView":3,"byteOffset":0,"componentType":5126,"count":260,"type":"VEC2"},{"bufferView":4,"byteOffset":0,"componentType":5125,"count":768,"type":"SCALAR"},{"bufferView":5,"byteOffset":0,"componentType":5126,"count":260,"max":[1.7999999523162842,1.7999999523162842,88.9000015258789],"min":[-1.7999999523162842,-1.7999999523162842,0],"type":"VEC3"},{"bufferView":6,"byteOffset":0,"componentType":5126,"count":260,"type":"VEC3"},{"bufferView":7,"byteOffset":0,"componentType":5126,"count":260,"type":"VEC2"},{"bufferView":8,"byteOffset":0,"componentType":5125,"count":768,"type":"SCALAR"},{"bufferView":9,"byteOffset":0,"componentType":5126,"count":260,"max":[1.7999999523162842,1.7999999523162842,88.9000015258789],"min":[-1.7999999523162842,-1.7999999523162842,0],"type":"VEC3"},{"bufferView":10,"byteOffset":0,"componentType":5126,"count":260,"type":"VEC3"},{"bufferView":11,"byteOffset":0,"componentType":5126,"count":260,"type":"VEC2"},{"bufferView":12,"byteOffset":0,"componentType":5125,"count":768,"type":"SCALAR"},{"bufferView":13,"byteOffset":0,"componentType":5126,"count":260,"max":[1.7999999523162842,1.7999999523162842,88.9000015258789],"min":[-1.7999999523162842,-1.7999999523162842,0],"type":"VEC3"},{"bufferView":14,"byteOffset":0,"componentType":5126,"count":260,"type":"VEC3"},{"bufferView":15,"byteOffset":0,"componentType":5126,"count":260,"type":"VEC2"},{"bufferView":16,"byteOffset":0,"componentType":5125,"count":768,"type":"SCALAR"},{"bufferView":17,"byteOffset":0,"componentType":5126,"count":260,"max":[1.7999999523162842,1.7999999523162842,88.9000015258789],"min":[-1.7999999523162842,-1.7999999523162842,0],"type":"VEC3"},{"bufferView":18,"byteOffset":0,"componentType":5126,"count":260,"type":"VEC3"},{"bufferView":19,"byteOffset":0,"componentType":5126,"count":260,"type":"VEC2"},{"bufferView":20,"byteOffset":0,"componentType":5125,"count":768,"type":"SCALAR"},{"bufferView":21,"byteOffset":0,"componentType":5126,"count":260,"max":[1.7999999523162842,1.7999999523162842,88.9000015258789],"min":[-1.7999999523162842,-1.7999999523162842,0],"type":"VEC3"},{"bufferView":22,"byteOffset":0,"componentType":5126,"count":260,"type":"VEC3"},{"bufferView":23,"byteOffset":0,"componentType":5126,"count":260,"type":"VEC2"},{"bufferView":24,"byteOffset":0,"componentType":5125,"count":768,"type":"SCALAR"},{"bufferView":25,"byteOffset":0,"componentType":5126,"count":260,"max":[1.7999999523162842,1.7999999523162842,88.9000015258789],"min":[-1.7999999523162842,-1.7999999523162842,0],"type":"VEC3"},{"bufferView":26,"byteOffset":0,"componentType":5126,"count":260,"type":"VEC3"},{"bufferView":27,"byteOffset":0,"componentType":5126,"count":260,"type":"VEC2"},{"bufferView":28,"byteOffset":0,"componentType":5125,"count":768,"type":"SCALAR"},{"bufferView":29,"byteOffset":0,"componentType":5126,"count":260,"max":[1.7999999523162842,1.7999999523162842,88.9000015258789],"min":[-1.7999999523162842,-1.7999999523162842,0],"type":"VEC3"},{"bufferView":30,"byteOffset":0,"componentType":5126,"count":260,"type":"VEC3"},{"bufferView":31,"byteOffset":0,"componentType":5126,"count":260,"type":"VEC2"},{"bufferView":32,"byteOffset":0,"componentType":5125,"count":768,"type":"SCALAR"},{"bufferView":33,"byteOffset":0,"componentType":5126,"count":260,"max":[1.7999999523162842,1.7999999523162842,88.9000015258789],"min":[-1.7999999523162842,-1.7999999523162842,0],"type":"VEC3"},{"bufferView":34,"byteOffset":0,"componentType":5126,"count":260,"type":"VEC3"},{"bufferView":35,"byteOffset":0,"componentType":5126,"count":260,"type":"VEC2"},{"bufferView":36,"byteOffset":0,"componentType":5125,"count":768,"type":"SCALAR"},{"bufferView":37,"byteOffset":0,"componentType":5126,"count":260,"max":[1.7999999523162842,1.7999999523162842,88.9000015258789],"min":[-1.7999999523162842,-1.7999999523162842,0],"type":"VEC3"},{"bufferView":38,"byteOffset":0,"componentType":5126,"count":260,"type":"VEC3"},{"bufferView":39,"byteOffset":0,"componentType":5126,"count":260,"type":"VEC2"},{"bufferView":40,"byteOffset":0,"componentType":5125,"count":768,"type":"SCALAR"},{"bufferView":41,"byteOffset":0,"componentType":5126,"count":260,"max":[1.7999999523162842,1.7999999523162842,88.9000015258789],"min":[-1.7999999523162842,-1.7999999523162842,0],"type":"VEC3"},{"bufferView":42,"byteOffset":0,"componentType":5126,"count":260,"type":"VEC3"},{"bufferView":43,"byteOffset":0,"componentType":5126,"count":260,"type":"VEC2"},{"bufferView":44,"byteOffset":0,"componentType":5125,"count":768,"type":"SCALAR"},{"bufferView":45,"byteOffset":0,"componentType":5126,"count":260,"max":[1.7999999523162842,1.7999999523162842,88.9000015258789],"min":[-1.7999999523162842,-1.7999999523162842,0],"type":"VEC3"},{"bufferView":46,"byteOffset":0,"componentType":5126,"count":260,"type":"VEC3"},{"bufferView":47,"byteOffset":0,"componentType":5126,"count":260,"type":"VEC2"},{"bufferView":48,"byteOffset":0,"componentType":5125,"count":768,"type":"SCALAR"},{"bufferView":49,"byteOffset":0,"componentType":5126,"count":260,"max":[1.7999999523162842,1.7999999523162842,88.9000015258789],"min":[-1.7999999523162842,-1.7999999523162842,0],"type":"VEC3"},{"bufferView":50,"byteOffset":0,"componentType":5126,"count":260,"type":"VEC3"},{"bufferView":51,"byteOffset":0,"componentType":5126,"count":260,"type":"VEC2"},{"bufferView":52,"byteOffset":0,"componentType":5125,"count":30,"type":"SCALAR"},{"bufferView":53,"byteOffset":0,"componentType":5126,"count":20,"max":[56.5,50,100],"min":[-56.5,-50,0],"type":"VEC3"},{"bufferView":54,"byteOffset":0,"componentType":5126,"count":20,"type":"VEC3"},{"bufferView":55,"byteOffset":0,"componentType":5126,"count":20,"type":"VEC2"},{"bufferView":56,"byteOffset":0,"componentType":5125,"count":30,"type":"SCALAR"},{"bufferView":57,"byteOffset":0,"componentType":5126,"count":20,"max":[50,50,100],"min":[-50,-50,0],"type":"VEC3"},{"bufferView":58,"byteOffset":0,"componentType":5126,"count":20,"type":"VEC3"},{"bufferView":59,"byteOffset":0,"componentType":5126,"count":20,"type":"VEC2"}],"bufferViews":[{"buffer":0,"byteOffset":0,"byteLength":3072,"target":34963},{"buffer":0,"byteOffset":3072,"byteLength":3120,"target":34962},{"buffer":0,"byteOffset":6192,"byteLength":3120,"target":34962},{"buffer":0,"byteOffset":9312,"byteLength":2080,"target":34962},{"buffer":0,"byteOffset":11392,"byteLength":3072,"target":34963},{"buffer":0,"byteOffset":14464,"byteLength":3120,"target":34962},{"buffer":0,"byteOffset":17584,"byteLength":3120,"target":34962},{"buffer":0,"byteOffset":20704,"byteLength":2080,"target":34962},{"buffer":0,"byteOffset":22784,"byteLength":3072,"target":34963},{"buffer":0,"byteOffset":25856,"byteLength":3120,"target":34962},{"buffer":0,"byteOffset":28976,"byteLength":3120,"target":34962},{"buffer":0,"byteOffset":32096,"byteLength":2080,"target":34962},{"buffer":0,"byteOffset":34176,"byteLength":3072,"target":34963},{"buffer":0,"byteOffset":37248,"byteLength":3120,"target":34962},{"buffer":0,"byteOffset":40368,"byteLength":3120,"target":34962},{"buffer":0,"byteOffset":43488,"byteLength":2080,"target":34962},{"buffer":0,"byteOffset":45568,"byteLength":3072,"target":34963},{"buffer":0,"byteOffset":48640,"byteLength":3120,"target":34962},{"buffer":0,"byteOffset":51760,"byteLength":3120,"target":34962},{"buffer":0,"byteOffset":54880,"byteLength":2080,"target":34962},{"buffer":0,"byteOffset":56960,"byteLength":3072,"target":34963},{"buffer":0,"byteOffset":60032,"byteLength":3120,"target":34962},{"buffer":0,"byteOffset":63152,"byteLength":3120,"target":34962},{"buffer":0,"byteOffset":66272,"byteLength":2080,"target":34962},{"buffer":0,"byteOffset":68352,"byteLength":3072,"target":34963},{"buffer":0,"byteOffset":71424,"byteLength":3120,"target":34962},{"buffer":0,"byteOffset":74544,"byteLength":3120,"target":34962},{"buffer":0,"byteOffset":77664,"byteLength":2080,"target":34962},{"buffer":0,"byteOffset":79744,"byteLength":3072,"target":34963},{"buffer":0,"byteOffset":82816,"byteLength":3120,"target":34962},{"buffer":0,"byteOffset":85936,"byteLength":3120,"target":34962},{"buffer":0,"byteOffset":89056,"byteLength":2080,"target":34962},{"buffer":0,"byteOffset":91136,"byteLength":3072,"target":34963},{"buffer":0,"byteOffset":94208,"byteLength":3120,"target":34962},{"buffer":0,"byteOffset":97328,"byteLength":3120,"target":34962},{"buffer":0,"byteOffset":100448,"byteLength":2080,"target":34962},{"buffer":0,"byteOffset":102528,"byteLength":3072,"target":34963},{"buffer":0,"byteOffset":105600,"byteLength":3120,"target":34962},{"buffer":0,"byteOffset":108720,"byteLength":3120,"target":34962},{"buffer":0,"byteOffset":111840,"byteLength":2080,"target":34962},{"buffer":0,"byteOffset":113920,"byteLength":3072,"target":34963},{"buffer":0,"byteOffset":116992,"byteLength":3120,"target":34962},{"buffer":0,"byteOffset":120112,"byteLength":3120,"target":34962},{"buffer":0,"byteOffset":123232,"byteLength":2080,"target":34962},{"buffer":0,"byteOffset":125312,"byteLength":3072,"target":34963},{"buffer":0,"byteOffset":128384,"byteLength":3120,"target":34962},{"buffer":0,"byteOffset":131504,"byteLength":3120,"target":34962},{"buffer":0,"byteOffset":134624,"byteLength":2080,"target":34962},{"buffer":0,"byteOffset":136704,"byteLength":3072,"target":34963},{"buffer":0,"byteOffset":139776,"byteLength":3120,"target":34962},{"buffer":0,"byteOffset":142896,"byteLength":3120,"target":34962},{"buffer":0,"byteOffset":146016,"byteLength":2080,"target":34962},{"buffer":0,"byteOffset":148096,"byteLength":120,"target":34963},{"buffer":0,"byteOffset":148216,"byteLength":240,"target":34962},{"buffer":0,"byteOffset":148456,"byteLength":240,"target":34962},{"buffer":0,"byteOffset":148696,"byteLength":160,"target":34962},{"buffer":0,"byteOffset":148856,"byteLength":120,"target":34963},{"buffer":0,"byteOffset":148976,"byteLength":240,"target":34962},{"buffer":0,"byteOffset":149216,"byteLength":240,"target":34962},{"buffer":0,"byteOffset":149456,"byteLength":160,"target":34962}],"scene":0,"scenes":[{"nodes":[0,1,2,3,4,5,6,7,8,9,10,11,12,13,14],"name":"Project Name"}],"extensionsUsed":["KHR_texture_transform"],"buffers":[{"byteLength":149616,"uri":"ProjectName.bin"}]}